<svg width="99" height="40" viewBox="0 0 99 40" fill="none" xmlns="http://www.w3.org/2000/svg">
<path d="M19.2021 26.2012V31H4.16992V26.2012H19.2021ZM6.15918 1.14062V31H0.00683594V1.14062H6.15918ZM21.417 20.1309V19.7002C21.417 18.0732 21.6494 16.5762 22.1143 15.209C22.5791 13.8281 23.2559 12.6318 24.1445 11.6201C25.0332 10.6084 26.127 9.82227 27.4258 9.26172C28.7246 8.6875 30.2148 8.40039 31.8965 8.40039C33.5781 8.40039 35.0752 8.6875 36.3877 9.26172C37.7002 9.82227 38.8008 10.6084 39.6895 11.6201C40.5918 12.6318 41.2754 13.8281 41.7402 15.209C42.2051 16.5762 42.4375 18.0732 42.4375 19.7002V20.1309C42.4375 21.7441 42.2051 23.2412 41.7402 24.6221C41.2754 25.9893 40.5918 27.1855 39.6895 28.2109C38.8008 29.2227 37.707 30.0088 36.4082 30.5693C35.1094 31.1299 33.6191 31.4102 31.9375 31.4102C30.2559 31.4102 28.7588 31.1299 27.4463 30.5693C26.1475 30.0088 25.0469 29.2227 24.1445 28.2109C23.2559 27.1855 22.5791 25.9893 22.1143 24.6221C21.6494 23.2412 21.417 21.7441 21.417 20.1309ZM27.3232 19.7002V20.1309C27.3232 21.0605 27.4053 21.9287 27.5693 22.7354C27.7334 23.542 27.9932 24.2529 28.3486 24.8682C28.7178 25.4697 29.1963 25.9414 29.7842 26.2832C30.3721 26.625 31.0898 26.7959 31.9375 26.7959C32.7578 26.7959 33.4619 26.625 34.0498 26.2832C34.6377 25.9414 35.1094 25.4697 35.4648 24.8682C35.8203 24.2529 36.0801 23.542 36.2441 22.7354C36.4219 21.9287 36.5107 21.0605 36.5107 20.1309V19.7002C36.5107 18.7979 36.4219 17.9502 36.2441 17.1572C36.0801 16.3506 35.8135 15.6396 35.4443 15.0244C35.0889 14.3955 34.6172 13.9033 34.0293 13.5479C33.4414 13.1924 32.7305 13.0146 31.8965 13.0146C31.0625 13.0146 30.3516 13.1924 29.7637 13.5479C29.1895 13.9033 28.7178 14.3955 28.3486 15.0244C27.9932 15.6396 27.7334 16.3506 27.5693 17.1572C27.4053 17.9502 27.3232 18.7979 27.3232 19.7002ZM44.8164 16.3574V15.9062C44.8164 14.416 45.2129 13.1104 46.0059 11.9893C46.8125 10.8682 47.9336 9.99316 49.3691 9.36426C50.8184 8.72168 52.5068 8.40039 54.4346 8.40039C56.3896 8.40039 58.0918 8.72168 59.541 9.36426C60.9902 9.99316 62.1113 10.8682 62.9043 11.9893C63.6973 13.1104 64.0938 14.416 64.0938 15.9062V16.3574C64.0938 17.4102 63.8682 18.3945 63.417 19.3105C62.9658 20.2129 62.3164 21.0059 61.4688 21.6895C60.6211 22.373 59.6094 22.9131 58.4336 23.3096C57.2578 23.6924 55.9385 23.8838 54.4756 23.8838C52.5342 23.8838 50.8389 23.5488 49.3896 22.8789C47.9404 22.209 46.8125 21.3066 46.0059 20.1719C45.2129 19.0234 44.8164 17.752 44.8164 16.3574ZM50.7021 15.9062V16.3574C50.7021 16.918 50.8525 17.4443 51.1533 17.9365C51.4541 18.415 51.8848 18.8047 52.4453 19.1055C53.0195 19.4062 53.6963 19.5566 54.4756 19.5566C55.2686 19.5566 55.9385 19.4062 56.4854 19.1055C57.0459 18.8047 57.4697 18.415 57.7568 17.9365C58.0576 17.4443 58.208 16.918 58.208 16.3574V15.9062C58.208 15.3047 58.0576 14.7715 57.7568 14.3066C57.4561 13.8281 57.0254 13.4521 56.4648 13.1787C55.9043 12.8916 55.2275 12.748 54.4346 12.748C53.6689 12.748 53.0059 12.8916 52.4453 13.1787C51.8848 13.4521 51.4541 13.8281 51.1533 14.3066C50.8525 14.7715 50.7021 15.3047 50.7021 15.9062ZM51.0508 21.71L52.8145 22.7354C52.4453 22.8994 52.0488 23.1455 51.625 23.4736C51.2012 23.8018 50.9893 24.2666 50.9893 24.8682C50.9893 25.292 51.1055 25.6133 51.3379 25.832C51.5703 26.0508 51.8779 26.2012 52.2607 26.2832C52.6572 26.3652 53.1016 26.4062 53.5938 26.4062H57.3877C59.0557 26.4062 60.4707 26.6455 61.6328 27.124C62.8086 27.5889 63.7109 28.2861 64.3398 29.2158C64.9688 30.1318 65.2832 31.2529 65.2832 32.5791C65.2832 33.4268 65.0303 34.2812 64.5244 35.1426C64.0186 36.0176 63.2803 36.8174 62.3096 37.542C61.3389 38.2803 60.1494 38.8682 58.7412 39.3057C57.333 39.7568 55.7197 39.9824 53.9014 39.9824C52.2471 39.9824 50.7842 39.832 49.5127 39.5312C48.2412 39.2305 47.1748 38.8135 46.3135 38.2803C45.4521 37.7607 44.7959 37.1592 44.3447 36.4756C43.9072 35.792 43.6885 35.0742 43.6885 34.3223C43.6885 33.1602 44.0234 32.1758 44.6934 31.3691C45.377 30.5625 46.2109 29.9131 47.1953 29.4209C48.1934 28.9287 49.1846 28.6006 50.1689 28.4365L51.3789 30.3027C51.0098 30.3711 50.6611 30.5352 50.333 30.7949C50.0049 31.041 49.7383 31.3418 49.5332 31.6973C49.3418 32.0664 49.2461 32.4902 49.2461 32.9688C49.2461 33.3242 49.335 33.666 49.5127 33.9941C49.7041 34.3223 49.9912 34.6094 50.374 34.8555C50.7705 35.1016 51.2559 35.293 51.8301 35.4297C52.418 35.5801 53.1084 35.6553 53.9014 35.6553C54.8721 35.6553 55.7061 35.5732 56.4033 35.4092C57.1006 35.2451 57.668 35.0195 58.1055 34.7324C58.543 34.459 58.8643 34.1582 59.0693 33.8301C59.2881 33.502 59.3975 33.1807 59.3975 32.8662C59.3975 32.4834 59.3086 32.1279 59.1309 31.7998C58.9531 31.4854 58.6523 31.2256 58.2285 31.0205C57.8047 30.8291 57.2168 30.7334 56.4648 30.7334H52.4863C51.4609 30.7334 50.5107 30.5967 49.6357 30.3232C48.7744 30.0361 48.0771 29.5918 47.5439 28.9902C47.0244 28.3887 46.7646 27.6025 46.7646 26.6318C46.7646 25.7021 46.9971 24.9229 47.4619 24.2939C47.9404 23.665 48.5146 23.1455 49.1846 22.7354C49.8545 22.3115 50.4766 21.9697 51.0508 21.71ZM65.3242 8.81055L65.3652 11.9072H57.4492L57.2441 8.81055H65.3242ZM74.5322 8.81055V31H68.6055V8.81055H74.5322ZM68.2363 3.02734C68.2363 2.16602 68.5371 1.45508 69.1387 0.894531C69.7402 0.333984 70.5469 0.0537109 71.5586 0.0537109C72.5566 0.0537109 73.3564 0.333984 73.958 0.894531C74.5732 1.45508 74.8809 2.16602 74.8809 3.02734C74.8809 3.88867 74.5732 4.59961 73.958 5.16016C73.3564 5.7207 72.5566 6.00098 71.5586 6.00098C70.5469 6.00098 69.7402 5.7207 69.1387 5.16016C68.5371 4.59961 68.2363 3.88867 68.2363 3.02734ZM85.1963 13.5479V31H79.29V8.81055H84.8271L85.1963 13.5479ZM84.335 19.126H82.7354C82.7354 17.4854 82.9473 16.0088 83.3711 14.6963C83.7949 13.3701 84.3896 12.2422 85.1553 11.3125C85.9209 10.3691 86.8301 9.65137 87.8828 9.15918C88.9492 8.65332 90.1387 8.40039 91.4512 8.40039C92.4902 8.40039 93.4404 8.55078 94.3018 8.85156C95.1631 9.15234 95.9014 9.63086 96.5166 10.2871C97.1455 10.9434 97.624 11.8115 97.9521 12.8916C98.2939 13.9717 98.4648 15.291 98.4648 16.8496V31H92.5176V16.8291C92.5176 15.8447 92.3809 15.0791 92.1074 14.5322C91.834 13.9854 91.4307 13.6025 90.8975 13.3838C90.3779 13.1514 89.7354 13.0352 88.9697 13.0352C88.1768 13.0352 87.4863 13.1924 86.8984 13.5068C86.3242 13.8213 85.8457 14.2588 85.4629 14.8193C85.0938 15.3662 84.8135 16.0088 84.6221 16.7471C84.4307 17.4854 84.335 18.2783 84.335 19.126Z" fill="#423B59"/>
</svg>
