<svg width="219" height="78" viewBox="0 0 219 78" fill="none" xmlns="http://www.w3.org/2000/svg">
<g clip-path="url(#clip0_9181_27892)">
<path d="M91.1388 66.3083C91.3057 65.8073 91.4726 65.3062 91.8065 64.9722C92.1403 64.6381 92.4742 64.3041 92.808 64.137C93.1418 63.97 93.6426 63.803 94.1434 63.803C94.811 63.803 95.3118 63.97 95.6456 64.137C95.9795 64.3041 96.3133 64.6381 96.4802 65.1392C96.6472 65.4732 96.8141 65.9743 96.981 66.6424H98.4833C98.4833 65.8073 98.1495 65.1392 97.8156 64.6381C97.4818 63.97 96.981 63.636 96.3133 63.3019C95.6456 62.9679 94.978 62.8008 93.9764 62.8008C93.3088 62.8008 92.6411 62.9679 91.9734 63.1349C91.3057 63.4689 90.8049 63.803 90.4711 64.3041C90.1373 64.8051 89.8034 65.3062 89.4696 65.9743C89.3027 66.6424 89.1357 67.4775 89.1357 68.3126V69.4818C89.1357 70.3169 89.3027 71.152 89.4696 71.8201C89.6365 72.4882 89.9703 73.1563 90.4711 73.4904C90.8049 73.9914 91.3057 74.3255 91.9734 74.6595C92.4742 74.9936 93.1418 74.9936 93.8095 74.9936C94.811 74.9936 95.4787 74.8265 96.1464 74.4925C96.8141 74.1585 97.3149 73.6574 97.6487 73.1563C97.9825 72.4882 98.1495 71.8201 98.3164 71.152H96.8141C96.6472 71.6531 96.6472 72.1542 96.3133 72.6552C96.1464 72.9893 95.8126 73.3233 95.4787 73.4904C95.1449 73.6574 94.4772 73.8244 93.8095 73.8244C93.3088 73.8244 92.808 73.6574 92.4742 73.4904C92.1403 73.3233 91.8065 72.9893 91.4726 72.6552C91.3057 72.3212 90.9719 71.8201 90.9719 71.3191C90.8049 70.818 90.8049 70.3169 90.8049 69.6488V68.4797C90.9719 67.3105 91.1388 66.8094 91.1388 66.3083Z" fill="#3E80FA"/>
<path d="M107.163 72.6552V68.4797C107.163 67.8116 106.996 67.3105 106.662 66.8094C106.328 66.3083 105.994 65.9743 105.494 65.8073C104.993 65.6403 104.492 65.4732 103.825 65.4732C103.324 65.4732 102.823 65.4732 102.322 65.6402C101.821 65.8073 101.488 65.9743 101.154 66.3083C100.82 66.4754 100.653 66.8094 100.486 67.1435C100.319 67.4775 100.319 67.8116 100.319 68.1456H101.821C101.821 67.9786 101.821 67.6445 101.988 67.4775C102.155 67.3105 102.322 67.1435 102.656 66.9764C103.157 66.8094 103.491 66.8094 103.825 66.8094C104.158 66.8094 104.492 66.8094 104.826 66.9764C105.16 67.1435 105.327 67.3105 105.494 67.6445C105.661 67.9786 105.661 68.1456 105.661 68.4797V69.1477H104.158C103.491 69.1477 102.99 69.1477 102.489 69.3148C101.988 69.4818 101.655 69.6488 101.154 69.8158C100.82 69.9829 100.486 70.3169 100.319 70.651C100.152 70.985 99.9854 71.4861 99.9854 71.8201C99.9854 72.3212 100.152 72.8223 100.319 73.1563C100.486 73.4904 100.987 73.8244 101.321 74.1585C101.821 74.3255 102.322 74.4925 102.823 74.4925C103.324 74.4925 103.658 74.4925 104.158 74.3255C104.492 74.1585 104.826 73.9914 105.16 73.6574C105.327 73.4904 105.327 73.4904 105.327 73.3233C105.327 73.4904 105.327 73.4904 105.327 73.6574C105.327 73.9914 105.494 74.1585 105.494 74.3255H106.996V74.1585C106.829 73.9914 106.829 73.6574 106.829 73.3233C107.163 73.1563 107.163 72.8223 107.163 72.6552ZM104.659 72.9893C104.325 73.1563 103.825 73.3233 103.491 73.3233C103.157 73.3233 102.823 73.3233 102.489 73.1563C102.322 72.9893 101.988 72.8223 101.988 72.6552C101.821 72.3212 101.821 72.1542 101.821 71.8201C101.821 71.4861 101.821 71.319 101.988 71.152C102.155 70.985 102.322 70.818 102.489 70.651C102.656 70.4839 102.99 70.4839 103.324 70.3169C103.658 70.3169 103.991 70.1499 104.492 70.1499H105.661V71.9871C105.661 72.1542 105.494 72.1542 105.494 72.3212C105.327 72.6552 104.993 72.8223 104.659 72.9893Z" fill="#3E80FA"/>
<path d="M111.169 61.9657H109.667V74.4925H111.169V61.9657Z" fill="#3E80FA"/>
<path d="M120.35 72.6552V68.4797C120.35 67.8116 120.183 67.3105 119.85 66.8094C119.516 66.3083 119.182 65.9743 118.681 65.8073C118.18 65.6403 117.68 65.4732 117.012 65.4732C116.511 65.4732 116.01 65.4732 115.51 65.6402C115.009 65.8073 114.675 65.9743 114.341 66.3083C114.007 66.4754 113.84 66.8094 113.674 67.1435C113.507 67.4775 113.507 67.8116 113.507 68.1456H115.009C115.009 67.9786 115.009 67.6445 115.176 67.4775C115.343 67.3105 115.51 67.1435 115.844 66.9764C116.177 66.8094 116.511 66.8094 116.845 66.8094C117.179 66.8094 117.513 66.8094 117.847 66.9764C118.18 67.1435 118.347 67.3105 118.514 67.6445C118.681 67.9786 118.681 68.1456 118.681 68.4797V69.1477H117.179C116.511 69.1477 116.01 69.1477 115.51 69.3148C115.009 69.4818 114.675 69.6488 114.174 69.8158C113.84 69.9829 113.507 70.3169 113.34 70.651C113.173 70.985 113.006 71.4861 113.006 71.8201C113.006 72.3212 113.173 72.8223 113.34 73.1563C113.507 73.4904 114.007 73.8244 114.341 74.1585C114.842 74.3255 115.343 74.4925 115.844 74.4925C116.344 74.4925 116.678 74.4925 117.179 74.3255C117.513 74.1585 117.847 73.9914 118.18 73.6574C118.347 73.4904 118.347 73.4904 118.347 73.3233C118.347 73.4904 118.347 73.4904 118.347 73.6574C118.347 73.9914 118.514 74.1585 118.514 74.3255H120.017V74.1585C119.85 73.9914 119.85 73.6574 119.85 73.3233C120.35 73.1563 120.35 72.8223 120.35 72.6552ZM117.847 72.9893C117.513 73.1563 117.012 73.3233 116.678 73.3233C116.344 73.3233 116.01 73.3233 115.677 73.1563C115.51 72.9893 115.176 72.8223 115.176 72.6552C115.176 72.4882 115.009 72.1542 115.009 71.8201C115.009 71.4861 115.009 71.319 115.176 71.152C115.343 70.985 115.51 70.818 115.677 70.651C115.844 70.4839 116.177 70.4839 116.511 70.3169C116.845 70.3169 117.179 70.1499 117.68 70.1499H118.848V71.9871C118.848 72.1542 118.681 72.1542 118.681 72.3212C118.347 72.6552 118.18 72.8223 117.847 72.9893Z" fill="#3E80FA"/>
<path d="M126.192 73.3233C126.025 73.3233 125.859 73.3233 125.859 73.3233C125.692 73.3233 125.525 73.3233 125.358 73.3233C125.191 73.3233 125.024 73.1563 125.024 72.9893C124.857 72.8223 124.857 72.6552 124.857 72.3212V66.8094H126.526V65.6403H124.857V63.4689H123.355V65.6403H121.686V66.8094H123.355V72.3212C123.355 72.9893 123.522 73.3233 123.689 73.6574C123.856 73.9914 124.189 74.3255 124.356 74.3255C124.69 74.4925 125.024 74.4925 125.358 74.4925C125.692 74.4925 125.859 74.4925 126.025 74.4925C126.192 74.4925 126.359 74.4925 126.526 74.3255V73.1563C126.359 73.3233 126.192 73.3233 126.192 73.3233Z" fill="#3E80FA"/>
<path d="M134.538 66.8094C134.204 66.4754 133.703 66.1413 133.203 65.8073C132.702 65.6403 132.201 65.4732 131.533 65.4732C130.866 65.4732 130.365 65.6403 129.864 65.8073C129.363 65.9743 129.03 66.3083 128.529 66.8094C128.195 67.1435 127.861 67.6445 127.694 68.3126C127.527 68.8137 127.36 69.4818 127.36 70.1499C127.36 70.818 127.527 71.319 127.694 71.9871C127.861 72.4882 128.195 72.9893 128.529 73.4904C128.863 73.8244 129.363 74.1584 129.864 74.4925C130.365 74.6595 130.866 74.8265 131.533 74.8265C132.201 74.8265 132.702 74.6595 133.203 74.4925C133.703 74.3255 134.037 73.9914 134.538 73.4904C134.872 73.1563 135.206 72.6552 135.373 71.9871C135.539 71.4861 135.706 70.818 135.706 70.1499V69.9829C135.706 69.3148 135.539 68.8137 135.373 68.1456C135.206 67.6445 134.872 67.1435 134.538 66.8094ZM134.037 70.1499C134.037 70.651 134.037 70.985 133.87 71.3191C133.703 71.6531 133.536 71.9871 133.369 72.3212C133.203 72.6552 132.869 72.8223 132.535 72.9893C132.201 73.1563 131.867 73.3233 131.533 73.3233C131.033 73.3233 130.699 73.1563 130.365 72.9893C130.031 72.8223 129.864 72.6552 129.53 72.3212C129.363 71.9871 129.196 71.6531 129.03 71.3191C128.863 70.985 128.863 70.4839 128.863 70.1499V69.9829C128.863 69.4818 128.863 69.1477 129.03 68.8137C129.196 68.4797 129.363 68.1456 129.53 67.8116C129.697 67.4775 130.031 67.3105 130.365 67.1435C130.699 66.9764 131.033 66.8094 131.533 66.8094C132.034 66.8094 132.368 66.9764 132.702 67.1435C133.036 67.3105 133.203 67.4775 133.536 67.8116C133.703 68.1456 133.87 68.4797 134.037 68.8137C134.204 69.1477 134.204 69.6488 134.204 69.9829V70.1499H134.037Z" fill="#3E80FA"/>
<path d="M143.719 66.3083C143.552 65.9743 143.218 65.8073 142.884 65.8073C142.551 65.6403 142.217 65.6403 141.716 65.6403C141.215 65.6403 140.714 65.8073 140.214 65.9743C139.713 66.1413 139.379 66.4754 139.045 66.8094V65.6403H137.543V74.4925H139.045V68.3126C139.212 68.1456 139.212 67.8116 139.379 67.6445C139.546 67.3105 139.88 67.1435 140.214 66.9764C140.548 66.8094 140.881 66.8094 141.215 66.8094C141.549 66.8094 141.883 66.8094 142.217 66.9764C142.551 67.1435 142.718 67.3105 142.884 67.6445C143.051 67.9786 143.051 68.3126 143.051 68.8137V74.6595H144.554V68.8137C144.554 68.3126 144.554 67.8116 144.387 67.3105C144.053 66.8094 143.886 66.4754 143.719 66.3083Z" fill="#3E80FA"/>
<path d="M155.57 62.6338H154.902H154.568L150.062 74.4925H151.731L152.899 71.3191H157.907L159.075 74.4925H160.744L156.238 62.6338H155.57ZM153.233 70.1499L155.236 64.6381L157.239 70.1499H153.233Z" fill="#3E80FA"/>
<path d="M163.081 68.8137C163.081 68.4797 163.248 68.1456 163.415 67.8116C163.582 67.4775 163.916 67.3105 164.083 67.1435C164.417 66.8094 164.918 66.8094 165.251 66.8094C165.585 66.8094 166.086 66.9764 166.253 67.1435C166.587 67.3105 166.754 67.4775 166.921 67.8116C167.087 68.1456 167.254 68.4797 167.254 68.8137H168.757C168.757 68.1456 168.59 67.6445 168.256 67.1435C167.922 66.6424 167.588 66.3083 167.087 65.9743C166.587 65.6403 165.919 65.4732 165.251 65.4732C164.584 65.4732 164.083 65.6403 163.582 65.8073C163.081 65.9743 162.748 66.3083 162.414 66.8094C162.08 67.1435 161.913 67.6445 161.746 68.1456C161.579 68.6467 161.579 69.3148 161.579 69.8158V70.1499C161.579 70.818 161.579 71.3191 161.746 71.8201C161.913 72.3212 162.08 72.8223 162.414 73.1563C162.748 73.4904 163.081 73.8244 163.582 74.1585C164.083 74.3255 164.584 74.4925 165.251 74.4925C165.919 74.4925 166.42 74.3255 166.921 74.1585C167.421 73.8244 167.922 73.4904 168.256 73.1563C168.59 72.6552 168.757 72.1542 168.757 71.6531H167.254C167.254 71.9871 167.087 72.3212 166.921 72.4882C166.754 72.8223 166.42 72.9893 166.253 73.1563C165.919 73.3233 165.752 73.4904 165.251 73.4904C164.751 73.4904 164.417 73.3233 164.083 73.1563C163.749 72.9893 163.582 72.6552 163.415 72.4882C163.248 72.1542 163.081 71.8201 163.081 71.4861C163.081 71.152 162.914 70.651 162.914 70.3169V69.9829C162.914 69.4818 162.914 69.1477 163.081 68.8137Z" fill="#3E80FA"/>
<path d="M177.27 72.6552V68.4797C177.27 67.8116 177.103 67.3105 176.77 66.8094C176.436 66.3083 176.102 65.9743 175.601 65.8073C175.1 65.6403 174.6 65.4732 173.932 65.4732C173.431 65.4732 172.93 65.4732 172.43 65.6402C171.929 65.8073 171.595 65.9743 171.261 66.3083C170.927 66.4754 170.76 66.8094 170.593 67.1435C170.427 67.4775 170.427 67.8116 170.427 68.1456H171.929C171.929 67.9786 171.929 67.6445 172.096 67.4775C172.263 67.3105 172.43 67.1435 172.763 66.9764C173.097 66.8094 173.431 66.8094 173.765 66.8094C174.099 66.8094 174.433 66.8094 174.766 66.9764C175.1 67.1435 175.267 67.3105 175.434 67.6445C175.601 67.9786 175.601 68.1456 175.601 68.4797V69.1477H174.099C173.431 69.1477 172.93 69.1477 172.43 69.3148C171.929 69.4818 171.595 69.6488 171.094 69.8158C170.76 69.9829 170.427 70.3169 170.26 70.651C170.093 70.985 169.926 71.4861 169.926 71.8201C169.926 72.3212 170.093 72.8223 170.26 73.1563C170.427 73.4904 170.927 73.8244 171.261 74.1585C171.762 74.3255 172.263 74.4925 172.763 74.4925C173.264 74.4925 173.598 74.4925 174.099 74.3255C174.433 74.1585 174.766 73.9914 175.1 73.6574C175.267 73.4904 175.267 73.4904 175.267 73.3233C175.267 73.4904 175.267 73.4904 175.267 73.6574C175.267 73.9914 175.434 74.1585 175.434 74.3255H176.936V74.1585C176.77 73.9914 176.77 73.6574 176.77 73.3233C177.27 73.1563 177.27 72.8223 177.27 72.6552ZM174.6 72.9893C174.266 73.1563 173.765 73.3233 173.431 73.3233C173.097 73.3233 172.763 73.3233 172.43 73.1563C172.263 72.9893 171.929 72.8223 171.929 72.6552C171.762 72.4882 171.762 72.1542 171.762 71.8201C171.762 71.4861 171.762 71.319 171.929 71.152C172.096 70.985 172.263 70.818 172.43 70.651C172.597 70.4839 172.93 70.4839 173.264 70.3169C173.598 70.3169 173.932 70.1499 174.433 70.1499H175.601V71.9871C175.601 72.1542 175.434 72.1542 175.434 72.3212C175.267 72.6552 175.1 72.8223 174.6 72.9893Z" fill="#3E80FA"/>
<path d="M185.116 66.6424C184.782 66.3083 184.448 65.9743 184.114 65.8073C183.78 65.6403 183.279 65.4732 182.612 65.4732C182.111 65.4732 181.61 65.6403 181.109 65.8073C180.609 65.9743 180.275 66.3083 179.941 66.6424C179.607 66.9764 179.44 67.4775 179.273 68.1456C179.106 68.6467 179.106 69.3148 179.106 69.9829V70.1499C179.106 70.818 179.106 71.319 179.273 71.9871C179.44 72.4882 179.607 72.9893 179.941 73.3233C180.275 73.6574 180.609 73.9914 181.109 74.3255C181.61 74.4925 181.944 74.6595 182.445 74.6595C182.946 74.6595 183.446 74.4925 183.947 74.3255C184.281 74.1585 184.782 73.8244 184.949 73.4904V74.4925H186.284V61.9657H184.782V66.6424H185.116ZM184.281 72.9893C183.947 73.1563 183.613 73.3233 183.113 73.3233C182.779 73.3233 182.278 73.3233 182.111 73.1563C181.777 72.9893 181.61 72.8223 181.443 72.4882C181.276 72.1542 181.109 71.8201 180.943 71.4861C180.776 71.152 180.776 70.651 180.776 70.3169V70.1499C180.776 69.6488 180.776 69.3148 180.943 68.9807C181.109 68.6467 181.109 68.3126 181.443 67.9786C181.61 67.6445 181.944 67.4775 182.111 67.3105C182.445 67.1435 182.779 66.9764 183.113 66.9764C183.446 66.9764 183.78 66.9764 184.114 67.1435C184.448 67.3105 184.615 67.4775 184.782 67.6445C184.949 67.8116 185.116 67.9786 185.116 68.3126V72.3212V72.4882C184.949 72.6552 184.615 72.8223 184.281 72.9893Z" fill="#3E80FA"/>
<path d="M195.297 66.8094C194.963 66.4754 194.629 66.1413 194.129 65.9743C193.628 65.8073 193.127 65.6403 192.459 65.6403C191.959 65.6403 191.458 65.8073 190.957 65.9743C190.456 66.1413 190.122 66.4754 189.789 66.8094C189.455 67.1435 189.121 67.6445 188.954 68.3126C188.787 68.8137 188.62 69.4818 188.62 70.1499V70.4839C188.62 71.152 188.787 71.6531 188.954 72.1542C189.121 72.6552 189.455 73.1563 189.789 73.4904C190.122 73.8244 190.623 74.1585 191.124 74.3255C191.625 74.4925 192.125 74.6595 192.793 74.6595C193.294 74.6595 193.795 74.6595 194.295 74.4925C194.796 74.3255 195.13 74.1585 195.297 73.8244C195.631 73.4904 195.798 73.3233 195.965 72.9893L195.13 72.3212C194.796 72.6552 194.462 72.9893 194.129 73.1563C193.795 73.3233 193.294 73.4904 192.793 73.4904C192.459 73.4904 191.959 73.4904 191.625 73.3233C191.291 73.1563 190.957 72.9893 190.79 72.6552C190.623 72.3212 190.456 71.9872 190.289 71.6531C190.122 71.3191 190.122 70.985 190.122 70.651H196.132V69.9829C196.132 69.3148 196.132 68.8137 195.965 68.3126C195.798 67.6445 195.464 67.1435 195.297 66.8094ZM194.629 69.3148H190.289C190.289 69.1477 190.289 68.8137 190.289 68.6467C190.456 68.3126 190.623 67.8116 190.79 67.6445C190.957 67.3105 191.291 67.1435 191.458 66.9764C191.792 66.8094 192.125 66.8094 192.459 66.8094C192.96 66.8094 193.461 66.9764 193.628 67.1435C193.962 67.3105 194.129 67.6445 194.295 67.9786C194.462 68.4797 194.629 68.8137 194.629 69.3148Z" fill="#3E80FA"/>
<path d="M209.485 66.3083C209.318 65.9743 208.984 65.8073 208.484 65.8073C208.15 65.6403 207.649 65.6403 207.148 65.6403C206.648 65.6403 206.147 65.8073 205.646 65.9743C205.145 66.1413 204.811 66.4754 204.478 66.8094C204.478 66.9764 204.311 66.9764 204.311 67.1435C204.144 66.8094 203.977 66.6424 203.81 66.4754C203.476 66.3083 203.309 65.9743 202.975 65.9743C202.641 65.8073 202.308 65.8073 201.807 65.8073C201.139 65.8073 200.638 65.9743 200.305 66.1413C199.804 66.3083 199.47 66.6424 199.303 66.9764V65.9743H197.801V74.8265H199.303V68.4797C199.303 68.3126 199.47 68.1456 199.47 67.9786C199.637 67.6445 199.971 67.4775 200.138 67.3105C200.472 67.1435 200.805 67.1435 201.306 67.1435C201.64 67.1435 201.974 67.1435 202.308 67.3105C202.641 67.4775 202.808 67.6445 202.975 67.9786C203.142 68.3126 203.142 68.6467 203.142 69.1477V74.9936H204.645V69.3148C204.645 69.1477 204.645 68.8137 204.811 68.6467C204.978 68.3126 204.978 68.1456 205.145 67.9786C205.312 67.8116 205.479 67.6445 205.813 67.4775C206.147 67.3105 206.314 67.3105 206.648 67.3105C206.981 67.3105 207.315 67.3105 207.649 67.4775C207.983 67.6445 208.15 67.8116 208.317 67.9786C208.484 68.3126 208.484 68.6467 208.484 69.1477V74.9936H209.986V69.1477C209.986 68.6467 209.986 68.1456 209.819 67.6445C209.819 66.8094 209.652 66.4754 209.485 66.3083Z" fill="#3E80FA"/>
<path d="M217.497 65.6403L215.494 72.3212L213.324 65.6403H211.655L214.827 74.3255L214.493 75.1606C214.326 75.4946 214.159 75.8287 213.992 75.9957C213.825 76.1627 213.658 76.3298 213.324 76.4968C213.158 76.6638 212.824 76.6638 212.49 76.6638H212.323C212.156 76.6638 212.156 76.6638 212.156 76.6638V77.833C212.156 77.833 212.323 77.833 212.49 77.833C212.657 77.833 212.824 77.833 212.991 77.833C213.324 77.833 213.658 77.833 213.992 77.6659C214.326 77.4989 214.493 77.3319 214.66 77.1649C214.827 76.9979 214.994 76.6638 215.161 76.4968C215.328 76.3298 215.328 75.9957 215.494 75.8287L219 65.6403H217.497Z" fill="#3E80FA"/>
<path fill-rule="evenodd" clip-rule="evenodd" d="M98.3163 16.3683C95.4787 16.3683 93.1418 17.3705 91.4726 19.2077C89.8034 21.045 88.9688 23.5503 88.9688 26.3897V45.0964C88.9688 48.1028 89.9703 50.6081 91.6395 52.2784C93.3087 54.1156 95.6456 55.1178 98.4832 55.1178C104.159 55.1178 107.998 50.9422 107.998 45.4304V36.4111C107.998 35.743 107.831 35.0749 107.33 34.7409C106.996 34.4069 106.329 34.0728 105.661 34.0728H99.3178C98.984 34.0728 98.8171 34.0728 98.6502 34.2398C98.4832 34.4069 98.4832 34.7409 98.4832 34.9079V37.7473C98.4832 37.9143 98.4832 38.2484 98.6502 38.4154C98.8171 38.5824 98.984 38.5824 99.3178 38.5824H102.823V45.7645C102.823 47.1006 102.322 48.2698 101.655 49.1049C100.82 49.94 99.8186 50.4411 98.4832 50.4411C97.1479 50.4411 95.9794 49.94 95.3117 49.1049C94.4771 48.2698 94.1433 46.9336 94.1433 45.4304V26.0557C94.1433 24.5525 94.4771 23.2163 95.3117 22.3812C95.9794 21.546 97.1479 21.045 98.3163 21.045C99.4848 21.045 100.486 21.546 101.321 22.3812C101.989 23.2163 102.489 24.5525 102.489 26.0557C102.489 26.3897 102.656 26.5567 102.823 26.7238C102.99 26.8908 103.157 26.8908 103.491 26.8908H106.829C106.996 26.8908 107.33 26.8908 107.497 26.7238C107.664 26.5567 107.664 26.3897 107.664 26.0557C107.664 23.2163 106.662 20.7109 104.993 18.8737C103.324 17.3705 100.987 16.3683 98.3163 16.3683ZM121.685 16.3683C119.014 16.3683 116.678 17.3705 115.008 19.2077C113.339 21.045 112.505 23.5503 112.505 26.3897V53.7816C112.505 54.1156 112.505 54.2827 112.671 54.4497C112.838 54.6167 113.005 54.6167 113.339 54.6167H116.678C116.845 54.6167 117.178 54.6167 117.345 54.4497C117.512 54.2827 117.512 54.1156 117.512 53.7816V40.5867H121.518L126.526 53.9486C126.526 54.1156 126.693 54.4497 126.86 54.4497C127.027 54.6167 127.194 54.6167 127.527 54.6167H131.2C131.534 54.6167 131.7 54.4497 131.867 54.2827C132.034 54.1156 132.034 53.7816 132.034 53.6146L126.359 39.2505C129.197 37.7473 131.033 34.7409 131.033 30.5653V26.2227C131.033 23.2163 130.031 20.7109 128.362 19.0407C126.693 17.3704 124.356 16.3683 121.685 16.3683ZM144.887 16.3683C142.05 16.3683 139.713 17.3705 137.877 19.2077C136.207 21.045 135.206 23.5503 135.206 26.5567V44.9293C135.206 47.9358 136.207 50.4411 137.877 52.2784C139.546 54.1156 142.05 55.1178 144.887 55.1178C147.725 55.1178 150.062 54.1156 151.731 52.2784C153.4 50.6081 154.402 48.1028 154.402 45.2634V26.2227C154.402 23.3833 153.4 20.8779 151.731 19.2077C150.062 17.3705 147.558 16.3683 144.887 16.3683ZM160.077 16.8694C159.91 16.8694 159.576 16.8694 159.409 17.0364C159.242 17.2034 159.242 17.3705 159.242 17.7045V45.0964C159.242 48.1028 160.077 50.6081 161.579 52.4454C163.082 54.2827 165.418 55.2848 168.089 55.2848C170.927 55.2848 172.93 53.9486 174.265 51.9443C174.933 52.9465 175.768 53.6146 176.769 54.2827C177.771 54.9508 179.106 55.2848 180.608 55.2848C183.279 55.2848 185.616 54.2827 187.118 52.4454C188.62 50.6081 189.455 48.1028 189.455 45.0964V17.7045C189.455 17.5375 189.455 17.2034 189.288 17.0364C189.121 16.8694 188.954 16.8694 188.62 16.8694H185.282C185.115 16.8694 184.781 16.8694 184.614 17.0364C184.447 17.2034 184.447 17.3705 184.447 17.7045V45.2634C184.447 46.9336 184.114 48.1028 183.446 48.9379C182.778 49.773 181.944 50.2741 180.608 50.2741C179.44 50.2741 178.605 49.773 177.938 48.9379C177.27 48.1028 176.936 46.7666 176.936 45.2634V17.7045C176.936 17.5375 176.936 17.2034 176.769 17.0364C176.602 16.8694 176.435 16.8694 176.101 16.8694H172.763C172.596 16.8694 172.262 16.8694 172.095 17.0364C171.928 17.2034 171.928 17.3705 171.928 17.7045V45.2634C171.928 46.9336 171.595 48.1028 170.927 48.9379C170.259 49.773 169.425 50.2741 168.256 50.2741C167.088 50.2741 166.086 49.773 165.418 48.9379C164.751 48.1028 164.417 46.7666 164.417 45.2634V17.7045C164.417 17.5375 164.417 17.2034 164.25 17.0364C164.083 16.8694 163.916 16.8694 163.582 16.8694H160.077ZM117.512 26.0557C117.512 24.5525 118.013 23.2163 118.681 22.3812C119.348 21.546 120.517 21.045 121.685 21.045C122.854 21.045 124.022 21.546 124.69 22.3812C125.357 23.2163 125.858 24.5525 125.858 26.0557V30.7323C125.858 32.2355 125.357 33.5717 124.69 34.4069C123.855 35.242 122.854 35.743 121.518 35.743H117.512V26.0557ZM140.38 26.3897C140.38 24.7195 140.881 23.5503 141.549 22.5482C142.383 21.7131 143.385 21.212 144.72 21.212C146.056 21.212 147.057 21.7131 147.892 22.5482C148.726 23.3833 149.06 24.5525 149.06 26.0557V45.5974C149.06 47.1006 148.559 48.2698 147.892 49.1049C147.057 49.94 146.056 50.4411 144.72 50.4411C143.385 50.4411 142.383 49.94 141.549 49.1049C140.714 48.2698 140.38 46.9336 140.38 45.2634V26.3897Z" fill="#423B59"/>
<path d="M11.6845 47.6017C10.1822 44.0942 9.34756 40.4197 9.34756 36.5782C9.34756 36.4111 9.34756 36.2441 9.34756 36.0771H0C0 36.2441 0 36.4111 0 36.5782C0 41.7559 1.16844 46.7666 3.17149 51.6103C3.83918 53.2805 5.6753 54.2827 7.34451 54.2827C8.0122 54.2827 8.67988 54.1156 9.34756 53.9486C11.8514 52.7794 12.8529 50.1071 11.6845 47.6017Z" fill="#FFD500"/>
<path d="M70.7745 36.0771H18.5283C18.5283 36.4111 18.5283 36.9122 18.5283 37.2463C18.5283 46.5996 26.0398 54.1156 35.3873 54.1156C42.0641 54.1156 47.9064 50.1071 50.744 44.2612C51.4117 42.424 53.0809 41.0878 55.2509 41.0878C57.9216 41.0878 59.9247 43.2591 59.9247 45.7645C59.9247 46.2655 59.7577 46.9336 59.7577 47.2677H59.9247C58.2555 51.6103 55.2509 55.6188 51.0779 58.4582C48.9079 59.9615 48.4071 62.9679 49.9094 64.9722C50.744 66.1413 52.2463 66.9764 53.5817 66.9764C54.5832 66.9764 55.4178 66.8094 56.2524 66.1413C65.9338 59.1263 71.1084 47.7687 70.7745 36.0771Z" fill="#FFD500"/>
<path d="M39.5599 62.4668C38.2245 62.6338 36.7222 62.8009 35.3869 62.8009C29.7116 62.8009 24.3701 60.9636 19.6963 57.4561C17.5263 55.7859 14.6887 56.2869 13.0195 58.2912C11.3503 60.4625 11.851 63.3019 13.8541 64.9722C20.0301 69.6488 27.3747 72.1542 35.2199 72.1542C37.223 72.1542 39.0591 71.9872 40.8952 71.6531C43.399 71.3191 45.0683 68.8137 44.7344 66.3084C44.5675 63.803 42.0637 62.1328 39.5599 62.4668Z" fill="#FFD500"/>
<path d="M35.3869 9.35332C36.7223 9.35332 38.2246 9.52034 39.5599 9.68737C42.0638 10.0214 44.5676 8.35118 44.9014 5.84582C45.2352 3.34047 43.566 0.835118 41.0622 0.501071C39.2261 0.167024 37.39 0 35.3869 0C27.5417 0 20.1971 2.50535 14.0211 7.18201C12.018 8.85225 11.5173 11.6916 13.1865 13.863C14.8557 15.8672 17.6933 16.3683 19.8633 14.6981C24.2032 11.1906 29.5447 9.35332 35.3869 9.35332Z" fill="#3E80FA"/>
<path d="M9.51455 18.2056C8.84687 18.0385 8.34611 17.8715 7.5115 17.8715C5.8423 17.8715 4.00617 18.8737 3.33849 20.5439C1.16852 25.2206 0.166992 30.2313 0.166992 35.576C0.166992 35.743 0.166992 35.9101 0.166992 36.0771H9.51455C9.51455 35.9101 9.51455 35.743 9.51455 35.576C9.51455 31.7345 10.3492 28.06 11.8514 24.5525C12.853 22.2141 11.8514 19.3747 9.51455 18.2056Z" fill="#3E80FA"/>
<path d="M56.0854 6.17987C55.2508 5.51178 54.4162 5.34475 53.4147 5.34475C52.0793 5.34475 50.577 6.01285 49.7424 7.34904C48.2401 9.35332 48.7409 12.3597 50.9109 13.863C55.0839 16.7024 58.0885 20.7109 59.7577 25.0535H59.5908C59.7577 25.3876 59.7577 26.0557 59.7577 26.5567C59.7577 29.0621 57.7546 31.2334 55.0839 31.2334C52.9139 31.2334 51.2447 29.8972 50.577 28.06C47.9063 22.2141 42.0641 18.2056 35.2203 18.2056C25.8728 18.2056 18.3613 25.7216 18.3613 35.0749C18.3613 35.409 18.3613 35.9101 18.3613 36.2441H70.4406C71.1083 24.5525 65.9337 13.0278 56.0854 6.17987Z" fill="#3E80FA"/>
</g>
<defs>
<clipPath id="clip0_9181_27892">
<rect width="219" height="78" fill="white"/>
</clipPath>
</defs>
</svg>
