<svg width="17" height="4" viewBox="0 0 17 4" fill="none" xmlns="http://www.w3.org/2000/svg">
<path d="M2.00545 0C0.904601 0 0.00390625 0.9 0.00390625 2C0.00390625 3.1 0.904601 4 2.00545 4C3.1063 4 4.00699 3.1 4.00699 2C4.00699 0.9 3.1063 0 2.00545 0ZM14.0147 0C12.9139 0 12.0132 0.9 12.0132 2C12.0132 3.1 12.9139 4 14.0147 4C15.1156 4 16.0163 3.1 16.0163 2C16.0163 0.9 15.1156 0 14.0147 0ZM8.01008 0C6.90923 0 6.00854 0.9 6.00854 2C6.00854 3.1 6.90923 4 8.01008 4C9.11093 4 10.0116 3.1 10.0116 2C10.0116 0.9 9.11093 0 8.01008 0Z" fill="#423B59"/>
</svg>
