<svg width="17" height="11" viewBox="0 0 17 11" fill="none" xmlns="http://www.w3.org/2000/svg">
<path d="M14.8784 0.196193L5.66577 9.40819C5.60383 9.47038 5.53022 9.51972 5.44917 9.55339C5.36811 9.58706 5.28121 9.60439 5.19344 9.60439C5.10567 9.60439 5.01876 9.58706 4.93771 9.55339C4.85665 9.51972 4.78304 9.47038 4.7211 9.40819L1.15844 5.84219C1.0965 5.78001 1.02289 5.73067 0.941834 5.697C0.860779 5.66333 0.773874 5.646 0.686104 5.646C0.598335 5.646 0.51143 5.66333 0.430375 5.697C0.34932 5.73067 0.275711 5.78001 0.213771 5.84219C0.151586 5.90413 0.102245 5.97774 0.068577 6.0588C0.0349092 6.13985 0.0175781 6.22676 0.0175781 6.31453C0.0175781 6.4023 0.0349092 6.4892 0.068577 6.57026C0.102245 6.65131 0.151586 6.72492 0.213771 6.78686L3.77777 10.3502C4.15374 10.7255 4.66324 10.9362 5.19444 10.9362C5.72564 10.9362 6.23514 10.7255 6.6111 10.3502L15.8231 1.14019C15.8852 1.07827 15.9344 1.0047 15.9681 0.923705C16.0017 0.842711 16.019 0.755883 16.019 0.668193C16.019 0.580503 16.0017 0.493675 15.9681 0.412681C15.9344 0.331688 15.8852 0.258121 15.8231 0.196193C15.7612 0.134009 15.6876 0.0846668 15.6065 0.050999C15.5254 0.0173312 15.4385 0 15.3508 0C15.263 0 15.1761 0.0173312 15.095 0.050999C15.014 0.0846668 14.9404 0.134009 14.8784 0.196193Z" fill="#22986E"/>
</svg>
