<svg width="20" height="20" viewBox="0 0 20 20" fill="none" xmlns="http://www.w3.org/2000/svg">
<path d="M10.0001 7.50374C10.4379 7.50374 10.8714 7.58997 11.2759 7.75751C11.6804 7.92504 12.0479 8.17061 12.3574 8.48017C12.667 8.78974 12.9126 9.15725 13.0801 9.56172C13.2476 9.96619 13.3339 10.3997 13.3339 10.8375C13.3339 11.2753 13.2476 11.7088 13.0801 12.1133C12.9126 12.5177 12.667 12.8852 12.3574 13.1948C12.0479 13.5044 11.6804 13.7499 11.2759 13.9175C10.8714 14.085 10.4379 14.1712 10.0001 14.1712C9.11596 14.1712 8.26801 13.82 7.64281 13.1948C7.01761 12.5696 6.66638 11.7217 6.66638 10.8375C6.66638 9.95332 7.01761 9.10537 7.64281 8.48017C8.26801 7.85497 9.11596 7.50374 10.0001 7.50374ZM10.0001 8.75374C9.44748 8.75374 8.91747 8.97328 8.52669 9.36406C8.13592 9.75483 7.91638 10.2848 7.91638 10.8375C7.91638 11.3901 8.13592 11.9201 8.52669 12.3109C8.91747 12.7017 9.44748 12.9212 10.0001 12.9212C10.5528 12.9212 11.0828 12.7017 11.4736 12.3109C11.8643 11.9201 12.0839 11.3901 12.0839 10.8375C12.0839 10.2848 11.8643 9.75483 11.4736 9.36406C11.0828 8.97328 10.5528 8.75374 10.0001 8.75374ZM10.0001 4.58374C13.8451 4.58374 17.1626 7.20874 18.0839 10.8875C18.1059 10.9678 18.1117 11.0517 18.1008 11.1343C18.0899 11.2169 18.0627 11.2965 18.0206 11.3684C17.9785 11.4403 17.9225 11.503 17.8559 11.553C17.7892 11.6029 17.7132 11.639 17.6324 11.6592C17.5516 11.6794 17.4676 11.6832 17.3853 11.6704C17.303 11.6576 17.224 11.6285 17.1531 11.5848C17.0822 11.5411 17.0208 11.4836 16.9724 11.4158C16.924 11.348 16.8897 11.2713 16.8714 11.19C16.4846 9.66033 15.5985 8.30347 14.3533 7.33437C13.1082 6.36527 11.5754 5.83935 9.99756 5.83992C8.41976 5.84049 6.88726 6.36753 5.64285 7.33754C4.39845 8.30755 3.5133 9.66505 3.12763 11.195C3.08639 11.3547 2.98366 11.4917 2.84185 11.576C2.70003 11.6603 2.53063 11.6851 2.37058 11.6451C2.21054 11.605 2.07285 11.5032 1.98752 11.362C1.9022 11.2208 1.87618 11.0516 1.91513 10.8912C2.36725 9.08931 3.40832 7.49004 4.87308 6.34731C6.33784 5.20458 8.14235 4.58388 10.0001 4.58374Z" fill="#AAAAAB"/>
</svg>
