<svg width="16" height="16" viewBox="0 0 16 16" fill="none" xmlns="http://www.w3.org/2000/svg">
<g clip-path="url(#clip0_9357_18322)">
<path d="M12.6667 2H8.31467C8.21156 2.00068 8.10965 1.97788 8.01667 1.93333L5.91267 0.877331C5.63493 0.739028 5.32893 0.666922 5.01867 0.666664H3.33333C2.4496 0.667723 1.60237 1.01925 0.97748 1.64414C0.352588 2.26904 0.00105857 3.11627 0 4L0 12C0.00105857 12.8837 0.352588 13.731 0.97748 14.3559C1.60237 14.9807 2.4496 15.3323 3.33333 15.3333H12.6667C13.5504 15.3323 14.3976 14.9807 15.0225 14.3559C15.6474 13.731 15.9989 12.8837 16 12V5.33333C15.9989 4.4496 15.6474 3.60237 15.0225 2.97748C14.3976 2.35259 13.5504 2.00106 12.6667 2ZM3.33333 2H5.01867C5.12177 1.99932 5.22368 2.02211 5.31667 2.06666L7.42067 3.11933C7.69813 3.25879 8.00413 3.33204 8.31467 3.33333H12.6667C13.0654 3.33398 13.4548 3.45378 13.7849 3.67734C14.115 3.9009 14.3708 4.21802 14.5193 4.588L1.33333 4.66266V4C1.33333 3.46956 1.54405 2.96086 1.91912 2.58578C2.29419 2.21071 2.8029 2 3.33333 2ZM12.6667 14H3.33333C2.8029 14 2.29419 13.7893 1.91912 13.4142C1.54405 13.0391 1.33333 12.5304 1.33333 12V5.996L14.6667 5.92066V12C14.6667 12.5304 14.456 13.0391 14.0809 13.4142C13.7058 13.7893 13.1971 14 12.6667 14Z" fill="#423B59"/>
</g>
<defs>
<clipPath id="clip0_9357_18322">
<rect width="16" height="16" fill="white"/>
</clipPath>
</defs>
</svg>
