<svg width="16" height="16" viewBox="0 0 16 16" fill="none" xmlns="http://www.w3.org/2000/svg">
<g clip-path="url(#clip0_9357_18362)">
<path d="M11.333 0H4.66634C3.78261 0.00105857 2.93538 0.352588 2.31049 0.97748C1.6856 1.60237 1.33407 2.4496 1.33301 3.33333V13.3333C1.33301 14.0406 1.61396 14.7189 2.11406 15.219C2.61415 15.719 3.29243 16 3.99967 16H11.333C12.2167 15.9989 13.064 15.6474 13.6889 15.0225C14.3138 14.3976 14.6653 13.5504 14.6663 12.6667V3.33333C14.6653 2.4496 14.3138 1.60237 13.6889 0.97748C13.064 0.352588 12.2167 0.00105857 11.333 0V0ZM13.333 3.33333V10.6667H5.33301V1.33333H11.333C11.8634 1.33333 12.3721 1.54405 12.7472 1.91912C13.1223 2.29419 13.333 2.8029 13.333 3.33333ZM3.99967 1.448V10.6667C3.53143 10.6663 3.07141 10.7898 2.66634 11.0247V3.33333C2.6664 2.91979 2.79465 2.51644 3.03343 2.1788C3.27221 1.84116 3.60978 1.58585 3.99967 1.448ZM11.333 14.6667H3.99967C3.64605 14.6667 3.30691 14.5262 3.05687 14.2761C2.80682 14.0261 2.66634 13.687 2.66634 13.3333C2.66634 12.9797 2.80682 12.6406 3.05687 12.3905C3.30691 12.1405 3.64605 12 3.99967 12H13.333V12.6667C13.333 13.1971 13.1223 13.7058 12.7472 14.0809C12.3721 14.456 11.8634 14.6667 11.333 14.6667Z" fill="#261D3F"/>
</g>
<defs>
<clipPath id="clip0_9357_18362">
<rect width="16" height="16" fill="white"/>
</clipPath>
</defs>
</svg>
