<svg width="16" height="16" viewBox="0 0 16 16" fill="none" xmlns="http://www.w3.org/2000/svg">
<g clip-path="url(#clip0_9357_18342)">
<path d="M14.705 3.48672L9.78901 1.14472C8.70689 0.498348 7.36001 0.486879 6.26701 1.11472L1.2957 3.48672C1.27704 3.49607 1.2577 3.50607 1.2397 3.51672C0.0599504 4.19128 -0.349612 5.6945 0.32495 6.87425C0.553607 7.27419 0.88995 7.60188 1.2957 7.82007L2.66704 8.47341V11.7401C2.66786 13.2008 3.61833 14.4913 5.01304 14.9254C5.98364 15.2062 6.99004 15.3437 8.00039 15.3334C9.01058 15.3447 10.017 15.2084 10.9877 14.9288C12.3825 14.4947 13.3329 13.2041 13.3337 11.7434V8.47207L14.6671 7.83472V13.3334C14.6671 13.7016 14.9655 14 15.3337 14C15.7019 14 16.0004 13.7016 16.0004 13.3334V5.33338C16.0048 4.55053 15.3867 3.82735 14.705 3.48672ZM12.0004 11.7434C12.0007 12.6171 11.4338 13.39 10.6004 13.6521C9.75517 13.8936 8.87933 14.0108 8.00036 14.0001C7.12139 14.0108 6.24554 13.8936 5.40036 13.6521C4.56689 13.3899 4.00001 12.6171 4.00036 11.7434V9.10875L6.2117 10.1621C6.75733 10.4861 7.38048 10.6563 8.01504 10.6548C8.61904 10.659 9.21289 10.4991 9.73304 10.1921L12.0004 9.10872V11.7434ZM14.1337 6.61672L9.1057 9.01672C8.40464 9.42494 7.53567 9.41338 6.8457 8.98672L1.92636 6.64672C1.37801 6.35103 1.1732 5.66682 1.46889 5.1185C1.56889 4.93307 1.71883 4.77935 1.9017 4.67472L6.89836 2.28807C7.59964 1.88075 8.46814 1.89228 9.15836 2.31807L14.0744 4.66007C14.4359 4.86082 14.6621 5.23991 14.667 5.65341C14.6677 6.0451 14.466 6.40935 14.1337 6.61672Z" fill="#261D3F"/>
</g>
<defs>
<clipPath id="clip0_9357_18342">
<rect width="16" height="16" fill="white"/>
</clipPath>
</defs>
</svg>
