<svg width="16" height="16" viewBox="0 0 16 16" fill="none" xmlns="http://www.w3.org/2000/svg">
<g clip-path="url(#clip0_9357_18383)">
<path d="M2.66621 4C2.40338 4.00069 2.14302 3.94925 1.9002 3.84866C1.65737 3.74808 1.4369 3.60034 1.25155 3.414L0.222213 2.498C0.0901348 2.38024 0.0102449 2.21484 0.000117984 2.03818C-0.010009 1.86152 0.0504565 1.68807 0.168213 1.556C0.285969 1.42392 0.45137 1.34403 0.628029 1.3339C0.804688 1.32377 0.978135 1.38424 1.11021 1.502L2.16688 2.44466C2.22737 2.51259 2.30112 2.56743 2.3836 2.60579C2.46607 2.64415 2.55553 2.66523 2.64645 2.66773C2.73738 2.67022 2.82785 2.65409 2.91231 2.62031C2.99677 2.58654 3.07342 2.53584 3.13755 2.47133L5.54021 0.183996C5.66941 0.068976 5.83825 0.00867518 6.01108 0.0158298C6.18391 0.0229845 6.34719 0.0970345 6.46644 0.222339C6.58569 0.347644 6.65156 0.514392 6.65015 0.687363C6.64874 0.860335 6.58015 1.02599 6.45888 1.14933L4.06621 3.42533C3.88206 3.60841 3.66363 3.75339 3.42341 3.852C3.18319 3.95061 2.92588 4.0009 2.66621 4ZM15.9995 2.66666C15.9995 2.48985 15.9293 2.32028 15.8043 2.19526C15.6793 2.07023 15.5097 2 15.3329 2H8.66621C8.4894 2 8.31983 2.07023 8.19481 2.19526C8.06978 2.32028 7.99955 2.48985 7.99955 2.66666C7.99955 2.84347 8.06978 3.01304 8.19481 3.13807C8.31983 3.26309 8.4894 3.33333 8.66621 3.33333H15.3329C15.5097 3.33333 15.6793 3.26309 15.8043 3.13807C15.9293 3.01304 15.9995 2.84347 15.9995 2.66666ZM4.06621 8.75866L6.45888 6.48266C6.52566 6.42321 6.5798 6.35093 6.61808 6.27012C6.65635 6.18932 6.67798 6.10164 6.68168 6.01231C6.68538 5.92297 6.67107 5.83381 6.6396 5.75011C6.60814 5.66642 6.56016 5.58992 6.49852 5.52515C6.43688 5.46038 6.36284 5.40867 6.28081 5.3731C6.19878 5.33752 6.11043 5.31882 6.02102 5.31809C5.93161 5.31736 5.84297 5.33462 5.76037 5.36885C5.67777 5.40308 5.6029 5.45357 5.54021 5.51733L3.14021 7.80466C3.0133 7.92602 2.84447 7.99374 2.66888 7.99374C2.49329 7.99374 2.32446 7.92602 2.19755 7.80466L1.13755 6.748C1.01181 6.62656 0.84341 6.55936 0.668612 6.56088C0.493814 6.5624 0.326606 6.63251 0.203 6.75612C0.0793948 6.87972 0.00928216 7.04693 0.00776321 7.22173C0.00624427 7.39653 0.0734405 7.56493 0.194879 7.69066L1.25155 8.74733C1.62466 9.12053 2.13016 9.33114 2.65788 9.33326C3.1856 9.33539 3.69277 9.12885 4.06888 8.75866H4.06621ZM15.9995 8C15.9995 7.82318 15.9293 7.65362 15.8043 7.52859C15.6793 7.40357 15.5097 7.33333 15.3329 7.33333H8.66621C8.4894 7.33333 8.31983 7.40357 8.19481 7.52859C8.06978 7.65362 7.99955 7.82318 7.99955 8C7.99955 8.17681 8.06978 8.34638 8.19481 8.4714C8.31983 8.59642 8.4894 8.66666 8.66621 8.66666H15.3329C15.5097 8.66666 15.6793 8.59642 15.8043 8.4714C15.9293 8.34638 15.9995 8.17681 15.9995 8ZM4.06621 14.092L6.45621 11.816C6.52299 11.7565 6.57713 11.6843 6.61541 11.6035C6.65369 11.5227 6.67532 11.435 6.67901 11.3456C6.68271 11.2563 6.6684 11.1671 6.63694 11.0834C6.60547 10.9998 6.55749 10.9232 6.49585 10.8585C6.43421 10.7937 6.36018 10.742 6.27814 10.7064C6.19611 10.6709 6.10776 10.6522 6.01836 10.6514C5.92895 10.6507 5.8403 10.668 5.7577 10.7022C5.6751 10.7364 5.60023 10.7869 5.53755 10.8507L3.13755 13.138C3.07342 13.2025 2.99677 13.2532 2.91231 13.287C2.82785 13.3208 2.73738 13.3369 2.64645 13.3344C2.55553 13.3319 2.46607 13.3108 2.3836 13.2725C2.30112 13.2341 2.22737 13.1793 2.16688 13.1113L1.11021 12.1687C0.978135 12.0509 0.804688 11.9904 0.628029 12.0006C0.45137 12.0107 0.285969 12.0906 0.168213 12.2227C0.0504565 12.3547 -0.010009 12.5282 0.000117984 12.7048C0.0102449 12.8815 0.0901348 13.0469 0.222213 13.1647L1.25155 14.0807C1.62466 14.4539 2.13016 14.6645 2.65788 14.6666C3.1856 14.6687 3.69277 14.4622 4.06888 14.092H4.06621ZM15.9995 13.3333C15.9995 13.1565 15.9293 12.9869 15.8043 12.8619C15.6793 12.7369 15.5097 12.6667 15.3329 12.6667H8.66621C8.4894 12.6667 8.31983 12.7369 8.19481 12.8619C8.06978 12.9869 7.99955 13.1565 7.99955 13.3333C7.99955 13.5101 8.06978 13.6797 8.19481 13.8047C8.31983 13.9298 8.4894 14 8.66621 14H15.3329C15.5097 14 15.6793 13.9298 15.8043 13.8047C15.9293 13.6797 15.9995 13.5101 15.9995 13.3333Z" fill="#261D3F"/>
</g>
<defs>
<clipPath id="clip0_9357_18383">
<rect width="16" height="16" fill="white"/>
</clipPath>
</defs>
</svg>
