<svg width="14" height="15" viewBox="0 0 14 15" fill="none" xmlns="http://www.w3.org/2000/svg">
<g clip-path="url(#clip0_7248_23181)">
<path d="M7 7.5C7.69223 7.5 8.36892 7.29473 8.9445 6.91015C9.52007 6.52556 9.96867 5.97894 10.2336 5.33939C10.4985 4.69985 10.5678 3.99612 10.4327 3.31719C10.2977 2.63825 9.96436 2.01461 9.47487 1.52513C8.98539 1.03564 8.36175 0.702301 7.68282 0.567253C7.00388 0.432205 6.30015 0.501517 5.66061 0.766423C5.02107 1.03133 4.47444 1.47993 4.08986 2.05551C3.70527 2.63108 3.5 3.30777 3.5 4C3.50093 4.92798 3.86997 5.81768 4.52615 6.47385C5.18233 7.13003 6.07203 7.49908 7 7.5ZM7 1.66667C7.46149 1.66667 7.91262 1.80352 8.29633 2.05991C8.68005 2.3163 8.97912 2.68071 9.15572 3.10707C9.33232 3.53343 9.37853 4.00259 9.2885 4.45521C9.19847 4.90784 8.97624 5.3236 8.64992 5.64992C8.32359 5.97624 7.90783 6.19847 7.45521 6.2885C7.00259 6.37853 6.53343 6.33233 6.10707 6.15572C5.68071 5.97912 5.31629 5.68005 5.0599 5.29633C4.80351 4.91262 4.66667 4.46149 4.66667 4C4.66667 3.38116 4.9125 2.78767 5.35008 2.35009C5.78767 1.9125 6.38116 1.66667 7 1.66667Z" fill="#423B59"/>
<path d="M7 8.66669C5.60809 8.66823 4.27363 9.22185 3.28939 10.2061C2.30516 11.1903 1.75154 12.5248 1.75 13.9167C1.75 14.0714 1.81146 14.2198 1.92085 14.3292C2.03025 14.4386 2.17862 14.5 2.33333 14.5C2.48804 14.5 2.63642 14.4386 2.74581 14.3292C2.85521 14.2198 2.91667 14.0714 2.91667 13.9167C2.91667 12.8337 3.34687 11.7951 4.11265 11.0293C4.87842 10.2636 5.91703 9.83335 7 9.83335C8.08297 9.83335 9.12158 10.2636 9.88735 11.0293C10.6531 11.7951 11.0833 12.8337 11.0833 13.9167C11.0833 14.0714 11.1448 14.2198 11.2542 14.3292C11.3636 14.4386 11.512 14.5 11.6667 14.5C11.8214 14.5 11.9697 14.4386 12.0791 14.3292C12.1885 14.2198 12.25 14.0714 12.25 13.9167C12.2485 12.5248 11.6948 11.1903 10.7106 10.2061C9.72637 9.22185 8.39191 8.66823 7 8.66669Z" fill="#423B59"/>
</g>
<defs>
<clipPath id="clip0_7248_23181">
<rect width="14" height="14" fill="white" transform="translate(0 0.5)"/>
</clipPath>
</defs>
</svg>
